<svg width="472" height="98" viewBox="0 0 472 98" fill="none" xmlns="http://www.w3.org/2000/svg">
  <g clip-path="url(#clip0_1_2)">
    <path d="M82.0566 5C68.0075 5 56.6179 16.3643 56.6179 30.3821C56.6179 38.1161 60.0796 45.0371 65.5346 49.7013C62.7565 51.1398 60.1985 53.0816 58.0004 55.4448L49.5899 40.9728C44.9983 33.0843 36.4748 27.7776 26.7018 27.7776C12.6474 27.7776 1.26221 39.142 1.26221 53.1598C1.26221 67.1828 12.6474 78.5471 26.7018 78.5471C36.5114 78.5471 45.0612 73.1985 49.6425 65.2629L57.6066 51.5603C58.4638 53.7019 59.6338 55.6863 61.0717 57.4547L69.4566 71.8747C74.0431 79.7632 82.5717 85.0752 92.3396 85.0752C106.394 85.0752 117.779 73.7108 117.779 59.6931C117.779 45.6701 106.394 34.3057 92.3396 34.3057C88.8939 34.3057 85.6043 34.9898 82.6046 36.2263C85.9878 32.1848 88.0186 26.9928 88.0186 21.3265C88.0186 12.3104 85.8877 8.31645 82.0566 5Z" stroke="#2C55B4" stroke-width="8.5" stroke-linecap="round" stroke-linejoin="round"/>
    <path d="M73.4015 37.5918C79.5425 38.757 84.6373 42.934 86.9789 48.6598L91.2604 59.1562" stroke="#2C55B4" stroke-width="8.5" stroke-linecap="round" stroke-linejoin="round"/>
  </g>
  <path d="M153.634 82V15.3091H184.18C190.02 15.3091 195.101 16.3232 199.421 18.3516C203.741 20.3161 207.077 23.147 209.429 26.8442C211.78 30.4778 212.956 34.8617 212.956 39.9961C212.956 45.067 211.78 49.451 209.429 53.1479C207.077 56.7814 203.741 59.5803 199.421 61.5449C195.101 63.4459 190.02 64.3965 184.18 64.3965H165.786L173.701 56.3096V82H153.634ZM173.701 58.521H183.059C187.125 58.521 190.158 57.6443 192.16 55.8909C194.188 54.1374 195.202 51.5055 195.202 47.9951C195.202 44.4212 194.188 41.7577 192.16 40.0042C190.158 38.2508 187.125 37.374 183.059 37.374H173.701L165.786 29.2871V58.521H173.701Z" fill="#04184A"/>
  <path d="M249.018 83.4014C243.693 83.4014 238.76 82.5459 234.221 80.835C229.731 79.0605 225.842 76.5771 222.554 73.3848C219.314 70.1924 216.793 66.4744 214.99 62.2305C213.188 57.9232 212.286 53.2324 212.286 48.1582C212.286 43.084 213.188 38.4258 214.99 34.1836C216.793 29.8763 219.314 26.125 222.554 22.9297C225.842 19.7373 229.731 17.2874 234.221 15.58C238.76 13.8055 243.693 12.9182 249.018 12.9182C254.343 12.9182 259.245 13.8055 263.729 15.58C268.262 17.2874 272.15 19.7373 275.39 22.9297C278.63 26.125 281.15 29.8763 282.953 34.1836C284.756 38.4258 285.657 43.084 285.657 48.1582C285.657 53.2324 284.756 57.9232 282.953 62.2305C281.15 66.4744 278.63 70.1924 275.39 73.3848C272.15 76.5771 268.262 79.0605 263.729 80.835C259.245 82.5459 254.343 83.4014 249.018 83.4014ZM249.018 66.8418C251.329 66.8418 253.408 66.4287 255.253 65.6025C257.146 64.7764 258.817 63.5693 260.268 61.9814C261.718 60.3301 262.845 58.334 263.647 55.9932C264.477 53.6523 264.892 51.0404 264.892 48.1582C264.892 45.276 264.477 42.6641 263.647 40.3232C262.845 37.9824 261.718 36.0199 260.268 34.4358C258.817 32.7845 257.146 31.5444 255.253 30.7153C253.408 29.8892 251.329 29.4761 249.018 29.4761C246.706 29.4761 244.595 29.8892 242.68 30.7153C240.786 31.5444 239.114 32.7845 237.664 34.4358C236.214 36.0199 235.056 37.9824 234.191 40.3232C233.389 42.6641 232.989 45.276 232.989 48.1582C232.989 50.9766 233.389 53.5885 234.191 55.9932C235.056 58.334 236.214 60.3301 237.664 61.9814C239.114 63.5693 240.786 64.7764 242.68 65.6025C244.595 66.4287 246.706 66.8418 249.018 66.8418Z" fill="#04184A"/>
  <path d="M321.598 83.4014C316.273 83.4014 311.34 82.5459 306.801 80.835C302.312 79.0605 298.423 76.5771 295.135 73.3848C291.895 70.1924 289.374 66.4744 287.571 62.2305C285.768 57.9232 284.867 53.2324 284.867 48.1582C284.867 43.084 285.768 38.4258 287.571 34.1836C289.374 29.8763 291.895 26.125 295.135 22.9297C298.423 19.7373 302.312 17.2874 306.801 15.58C311.34 13.8055 316.273 12.9182 321.598 12.9182C326.923 12.9182 331.825 13.8055 336.31 15.58C340.842 17.2874 344.73 19.7373 347.97 22.9297C351.21 26.125 353.73 29.8763 355.533 34.1836C357.336 38.4258 358.237 43.084 358.237 48.1582C358.237 53.2324 357.336 57.9232 355.533 62.2305C353.73 66.4744 351.21 70.1924 347.97 73.3848C344.73 76.5771 340.842 79.0605 336.31 80.835C331.825 82.5459 326.923 83.4014 321.598 83.4014ZM321.598 66.8418C323.91 66.8418 325.988 66.4287 327.833 65.6025C329.726 64.7764 331.398 63.5693 332.848 61.9814C334.299 60.3301 335.425 58.334 336.228 55.9932C337.058 53.6523 337.473 51.0404 337.473 48.1582C337.473 45.276 337.058 42.6641 336.228 40.3232C335.425 37.9824 334.299 36.0199 332.848 34.4358C331.398 32.7845 329.726 31.5444 327.833 30.7153C325.988 29.8892 323.91 29.4761 321.598 29.4761C319.286 29.4761 317.175 29.8892 315.26 30.7153C313.367 31.5444 311.695 32.7845 310.244 34.4358C308.794 36.0199 307.636 37.9824 306.771 40.3232C305.969 42.6641 305.569 45.276 305.569 48.1582C305.569 50.9766 305.969 53.5885 306.771 55.9932C307.636 58.334 308.794 60.3301 310.244 61.9814C311.695 63.5693 313.367 64.7764 315.26 65.6025C317.175 66.4287 319.286 66.8418 321.598 66.8418Z" fill="#04184A"/>
  <path d="M374.558 82V31.1982H354.893V15.3091H414.291V31.1982H394.626V82H374.558Z" fill="#04184A"/>
  <path d="M438.657 67.1592H473.237V82H418.892V15.3091H471.984V30.1499H438.657V67.1592ZM437.404 40.9082H466.855V55.2471H437.404V40.9082Z" fill="#04184A"/>
  <path d="M504.548 83.4014C499.223 83.4014 494.289 82.5459 489.75 80.835C485.261 79.0605 481.372 76.6094 478.084 73.4814C474.844 70.2891 472.324 66.5711 470.521 62.3271C468.718 58.0199 467.816 53.2962 467.816 48.1582C467.816 43.0202 468.718 38.3294 470.521 34.0854C472.324 29.7782 474.844 26.0602 478.084 22.9316C481.372 19.7393 485.261 17.2874 489.75 15.58C494.289 13.8055 499.223 12.9182 504.548 12.9182C510.829 12.9182 516.383 14.0171 521.211 16.2148C526.088 18.3464 530.094 21.4603 533.232 25.5564L520.536 37.0371C518.456 34.5016 516.143 32.6021 513.598 31.3384C511.053 30.0747 508.214 29.4429 505.083 29.4429C502.47 29.4429 500.089 29.856 497.94 30.6821C495.79 31.5083 493.947 32.7153 492.412 34.3032C490.878 35.8911 489.686 37.8556 488.836 40.1965C488.006 42.5374 487.591 45.191 487.591 48.1582C487.591 51.1253 488.006 53.779 488.836 56.1199C489.686 58.4608 490.878 60.4253 492.412 62.0132C493.947 63.6011 495.79 64.8081 497.94 65.6343C500.089 66.4604 502.47 66.8735 505.083 66.8735C508.214 66.8735 511.053 66.2417 513.598 64.978C516.143 63.7144 518.456 61.8148 520.536 59.2793L533.232 70.7601C530.094 74.7917 526.088 77.9056 521.211 80.1011C516.383 82.3027 510.829 83.4014 504.548 83.4014Z" fill="#04184A"/>
  <path d="M545.333 82V15.3091H565.401V82H545.333Z" fill="#04184A" transform="translate(-77 0)"/>
  <defs>
    <clipPath id="clip0_1_2">
      <rect width="119" height="90" fill="white" transform="translate(0 0.0375977)"/>
    </clipPath>
  </defs>
</svg>
